M48
;DRILL file {KiCad 4.0.0-rc2-stable} date 24.05.2016 15:49:26
;FORMAT={-:-/ absolute / inch / decimal}
FMAT,2
INCH,TZ
T1C0.016
T2C0.024
T3C0.030
T4C0.031
T5C0.032
T6C0.032
T7C0.040
T8C0.157
%
G90
G05
M72
T1
X5.7Y-3.25
X5.75Y-3.25
X5.85Y-3.25
X5.9Y-4.37
X6.15Y-3.6475
T2
X5.475Y-4.245
X5.525Y-4.245
X5.575Y-4.245
T3
X5.7Y-4.52
X5.8Y-4.42
X5.9Y-4.52
T4
X5.5Y-3.37
X5.5Y-3.47
X5.5Y-3.57
X5.5Y-3.67
X5.55Y-3.82
X5.7Y-4.07
X5.7Y-4.17
X5.8Y-3.37
X5.8Y-3.47
X5.8Y-3.57
X5.8Y-3.67
X5.925Y-3.47
X5.925Y-3.57
X5.95Y-3.82
X6.05Y-3.27
X6.05Y-3.37
X6.05Y-3.47
X6.05Y-3.57
X6.05Y-3.67
X6.05Y-3.77
X6.05Y-3.87
X6.05Y-3.97
X6.05Y-4.07
X6.05Y-4.17
X6.05Y-4.27
X6.05Y-4.37
X6.05Y-4.47
X6.05Y-4.57
X6.35Y-3.27
X6.35Y-3.37
X6.35Y-3.47
X6.35Y-3.57
X6.35Y-3.67
X6.35Y-3.77
X6.35Y-3.87
X6.35Y-3.97
X6.35Y-4.07
X6.35Y-4.17
X6.35Y-4.27
X6.35Y-4.37
X6.35Y-4.47
X6.35Y-4.57
T5
X5.4516Y-3.82
X5.7Y-3.9716
X5.7Y-4.2684
X5.8516Y-3.82
X5.875Y-4.0239
X5.875Y-4.2161
X5.925Y-3.3716
X5.925Y-3.6684
T6
X5.525Y-3.995
X5.525Y-4.095
X5.65Y-3.82
X5.75Y-3.82
T7
X5.35Y-3.395
X5.35Y-3.495
X5.35Y-3.595
X5.35Y-3.695
X5.35Y-3.795
X5.35Y-3.895
X5.35Y-3.995
X5.35Y-4.095
X5.35Y-4.195
X5.35Y-4.295
X5.35Y-4.395
X5.35Y-4.495
X5.5Y-4.47
X5.5Y-4.57
X5.65Y-3.07
X5.65Y-3.17
X5.65Y-4.77
X5.75Y-3.07
X5.75Y-3.17
X5.75Y-4.77
X5.85Y-3.07
X5.85Y-3.17
X5.85Y-4.77
X6.15Y-4.77
X6.25Y-4.77
X6.5Y-3.395
X6.5Y-3.495
X6.5Y-3.595
X6.5Y-3.695
X6.5Y-3.795
X6.5Y-3.895
X6.5Y-3.995
X6.5Y-4.095
X6.5Y-4.195
X6.5Y-4.295
X6.5Y-4.395
X6.5Y-4.495
T8
X5.35Y-3.12
X5.35Y-4.77
X6.5Y-3.12
X6.5Y-4.77
T0
M30
