M48
;DRILL file {KiCad 4.0.2-stable} date 19.08.2016 09:42:29
;FORMAT={-:-/ absolute / inch / decimal}
FMAT,2
INCH,TZ
T1C0.016
T2C0.024
T3C0.028
T4C0.030
T5C0.031
T6C0.032
T7C0.032
T8C0.040
T9C0.157
%
G90
G05
M72
T1
X5.1844Y-3.8587
T2
X4.85Y-3.55
X4.9Y-3.55
X4.95Y-3.55
T3
X5.063Y-4.3937
X5.0945Y-4.4409
X5.126Y-4.3937
X5.1575Y-4.4409
X5.189Y-4.3937
T4
X4.925Y-3.3
X5.025Y-3.2
X5.125Y-3.3
T5
X4.85Y-2.6
X4.85Y-2.7
X4.85Y-2.8
X4.85Y-2.9
X4.95Y-3.05
X5.05Y-3.05
X5.1Y-3.6
X5.1Y-3.7
X5.15Y-2.6
X5.15Y-2.7
X5.15Y-2.8
X5.15Y-2.9
X5.275Y-2.6
X5.275Y-3.375
X5.4Y-2.5
X5.4Y-2.6
X5.4Y-2.7
X5.4Y-2.8
X5.4Y-2.9
X5.4Y-3.
X5.4Y-3.1
X5.4Y-3.2
X5.4Y-3.3
X5.4Y-3.4
X5.4Y-3.5
X5.4Y-3.6
X5.4Y-3.7
X5.4Y-3.8
X5.4Y-3.9
X5.4Y-4.
X5.4Y-4.1
X5.4Y-4.2
X5.4Y-4.3
X5.4Y-4.4
X6.Y-2.5
X6.Y-2.6
X6.Y-2.7
X6.Y-2.8
X6.Y-2.9
X6.Y-3.
X6.Y-3.1
X6.Y-3.2
X6.Y-3.3
X6.Y-3.4
X6.Y-3.5
X6.Y-3.6
X6.Y-3.7
X6.Y-3.8
X6.Y-3.9
X6.Y-4.
X6.Y-4.1
X6.Y-4.2
X6.Y-4.3
X6.Y-4.4
T6
X4.8516Y-3.05
X5.1Y-3.5016
X5.1Y-3.7984
X5.1484Y-3.05
X5.25Y-3.5539
X5.25Y-3.7461
X5.275Y-2.6984
X5.275Y-3.2766
T7
X4.8Y-3.15
X4.8Y-3.45
X4.835Y-4.02
X4.835Y-4.32
X4.945Y-4.02
X4.945Y-4.32
X5.055Y-4.02
X5.055Y-4.32
X5.165Y-4.02
X5.165Y-4.32
X5.275Y-2.8
X5.275Y-3.1
X5.275Y-4.02
X5.275Y-4.32
T8
X4.65Y-4.55
X4.7Y-2.7
X4.7Y-2.8
X4.7Y-2.9
X4.7Y-3.
X4.7Y-3.1
X4.7Y-3.2
X4.7Y-3.3
X4.7Y-3.4
X4.7Y-3.5
X4.7Y-3.6
X4.7Y-3.7
X4.7Y-3.8
X4.7Y-3.9
X4.7Y-4.
X4.7Y-4.1
X4.7Y-4.2
X4.75Y-4.55
X4.85Y-3.725
X4.85Y-3.825
X4.85Y-3.925
X4.85Y-4.55
X4.95Y-3.725
X4.95Y-3.825
X4.95Y-3.925
X5.4Y-4.55
X5.5Y-4.55
X5.6Y-4.55
X5.7Y-4.55
X5.8Y-4.55
X5.9Y-4.55
X6.Y-4.55
X6.1Y-4.55
X6.15Y-2.7
X6.15Y-2.8
X6.15Y-2.9
X6.15Y-3.
X6.15Y-3.1
X6.15Y-3.2
X6.15Y-3.3
X6.15Y-3.4
X6.15Y-3.5
X6.15Y-3.6
X6.15Y-3.7
X6.15Y-3.8
X6.15Y-3.9
X6.15Y-4.
X6.15Y-4.1
X6.15Y-4.2
T9
X4.7Y-2.53
X4.7Y-4.38
X6.15Y-2.53
X6.15Y-4.38
T3
X4.9823Y-4.5689G85X4.9823Y-4.6161
G05
X5.2697Y-4.5689G85X5.2697Y-4.6161
G05
T0
M30
