G04 #@! TF.FileFunction,Legend,Top*
%FSLAX46Y46*%
G04 Gerber Fmt 4.6, Leading zero omitted, Abs format (unit mm)*
G04 Created by KiCad (PCBNEW 4.0.2-stable) date 19.08.2016 09:42:33*
%MOMM*%
G01*
G04 APERTURE LIST*
%ADD10C,0.100000*%
%ADD11C,0.150000*%
%ADD12O,1.500000X2.700000*%
%ADD13C,1.400000*%
%ADD14R,1.700000X1.700000*%
%ADD15C,1.700000*%
%ADD16O,2.000000X2.000000*%
%ADD17R,2.432000X2.127200*%
%ADD18O,2.432000X2.127200*%
%ADD19R,2.127200X2.432000*%
%ADD20O,2.127200X2.432000*%
%ADD21C,4.400000*%
%ADD22O,1.299160X1.901140*%
%ADD23C,1.924000*%
%ADD24C,1.901140*%
%ADD25C,1.797000*%
%ADD26R,2.120000X2.120000*%
%ADD27C,2.120000*%
G04 APERTURE END LIST*
D10*
D11*
X154070095Y-76906187D02*
X154108190Y-76829996D01*
X154146286Y-76791901D01*
X154222476Y-76753806D01*
X154451048Y-76753806D01*
X154527238Y-76791901D01*
X154565333Y-76829996D01*
X154603429Y-76906187D01*
X154603429Y-77020473D01*
X154565333Y-77096663D01*
X154527238Y-77134758D01*
X154451048Y-77172854D01*
X154222476Y-77172854D01*
X154146286Y-77134758D01*
X154108190Y-77096663D01*
X154070095Y-77020473D01*
X154070095Y-76906187D01*
X154603429Y-77439521D02*
X154070095Y-77629997D01*
X154603429Y-77820473D01*
X154108190Y-78429997D02*
X154070095Y-78353807D01*
X154070095Y-78201426D01*
X154108190Y-78125235D01*
X154184381Y-78087140D01*
X154489143Y-78087140D01*
X154565333Y-78125235D01*
X154603429Y-78201426D01*
X154603429Y-78353807D01*
X154565333Y-78429997D01*
X154489143Y-78468092D01*
X154412952Y-78468092D01*
X154336762Y-78087140D01*
X154070095Y-78810949D02*
X154603429Y-78810949D01*
X154451048Y-78810949D02*
X154527238Y-78849044D01*
X154565333Y-78887140D01*
X154603429Y-78963330D01*
X154603429Y-79039521D01*
X154070095Y-79420473D02*
X154108190Y-79344282D01*
X154184381Y-79306187D01*
X154870095Y-79306187D01*
X154070095Y-80068092D02*
X154489143Y-80068092D01*
X154565333Y-80029997D01*
X154603429Y-79953807D01*
X154603429Y-79801426D01*
X154565333Y-79725235D01*
X154108190Y-80068092D02*
X154070095Y-79991902D01*
X154070095Y-79801426D01*
X154108190Y-79725235D01*
X154184381Y-79687140D01*
X154260571Y-79687140D01*
X154336762Y-79725235D01*
X154374857Y-79801426D01*
X154374857Y-79991902D01*
X154412952Y-80068092D01*
X154603429Y-80372855D02*
X154070095Y-80563331D01*
X154603429Y-80753807D02*
X154070095Y-80563331D01*
X153879619Y-80487140D01*
X153841524Y-80449045D01*
X153803429Y-80372855D01*
X154870095Y-81401426D02*
X154870095Y-81249045D01*
X154832000Y-81172855D01*
X154793905Y-81134760D01*
X154679619Y-81058569D01*
X154527238Y-81020474D01*
X154222476Y-81020474D01*
X154146286Y-81058569D01*
X154108190Y-81096664D01*
X154070095Y-81172855D01*
X154070095Y-81325236D01*
X154108190Y-81401426D01*
X154146286Y-81439522D01*
X154222476Y-81477617D01*
X154412952Y-81477617D01*
X154489143Y-81439522D01*
X154527238Y-81401426D01*
X154565333Y-81325236D01*
X154565333Y-81172855D01*
X154527238Y-81096664D01*
X154489143Y-81058569D01*
X154412952Y-81020474D01*
X154603429Y-82163331D02*
X154070095Y-82163331D01*
X154908190Y-81972855D02*
X154336762Y-81782379D01*
X154336762Y-82277617D01*
X154793905Y-83153808D02*
X154832000Y-83191903D01*
X154870095Y-83268094D01*
X154870095Y-83458570D01*
X154832000Y-83534760D01*
X154793905Y-83572856D01*
X154717714Y-83610951D01*
X154641524Y-83610951D01*
X154527238Y-83572856D01*
X154070095Y-83115713D01*
X154070095Y-83610951D01*
X154603429Y-83953808D02*
X154070095Y-83953808D01*
X154527238Y-83953808D02*
X154565333Y-83991903D01*
X154603429Y-84068094D01*
X154603429Y-84182380D01*
X154565333Y-84258570D01*
X154489143Y-84296665D01*
X154070095Y-84296665D01*
X154070095Y-85020475D02*
X154870095Y-85020475D01*
X154108190Y-85020475D02*
X154070095Y-84944285D01*
X154070095Y-84791904D01*
X154108190Y-84715713D01*
X154146286Y-84677618D01*
X154222476Y-84639523D01*
X154451048Y-84639523D01*
X154527238Y-84677618D01*
X154565333Y-84715713D01*
X154603429Y-84791904D01*
X154603429Y-84944285D01*
X154565333Y-85020475D01*
X154603429Y-86010952D02*
X153803429Y-86010952D01*
X154565333Y-86010952D02*
X154603429Y-86087143D01*
X154603429Y-86239524D01*
X154565333Y-86315714D01*
X154527238Y-86353809D01*
X154451048Y-86391905D01*
X154222476Y-86391905D01*
X154146286Y-86353809D01*
X154108190Y-86315714D01*
X154070095Y-86239524D01*
X154070095Y-86087143D01*
X154108190Y-86010952D01*
X154070095Y-86734762D02*
X154603429Y-86734762D01*
X154451048Y-86734762D02*
X154527238Y-86772857D01*
X154565333Y-86810953D01*
X154603429Y-86887143D01*
X154603429Y-86963334D01*
X154070095Y-87344286D02*
X154108190Y-87268095D01*
X154146286Y-87230000D01*
X154222476Y-87191905D01*
X154451048Y-87191905D01*
X154527238Y-87230000D01*
X154565333Y-87268095D01*
X154603429Y-87344286D01*
X154603429Y-87458572D01*
X154565333Y-87534762D01*
X154527238Y-87572857D01*
X154451048Y-87610953D01*
X154222476Y-87610953D01*
X154146286Y-87572857D01*
X154108190Y-87534762D01*
X154070095Y-87458572D01*
X154070095Y-87344286D01*
X154603429Y-87839524D02*
X154603429Y-88144286D01*
X154870095Y-87953810D02*
X154184381Y-87953810D01*
X154108190Y-87991905D01*
X154070095Y-88068096D01*
X154070095Y-88144286D01*
X154070095Y-88525239D02*
X154108190Y-88449048D01*
X154146286Y-88410953D01*
X154222476Y-88372858D01*
X154451048Y-88372858D01*
X154527238Y-88410953D01*
X154565333Y-88449048D01*
X154603429Y-88525239D01*
X154603429Y-88639525D01*
X154565333Y-88715715D01*
X154527238Y-88753810D01*
X154451048Y-88791906D01*
X154222476Y-88791906D01*
X154146286Y-88753810D01*
X154108190Y-88715715D01*
X154070095Y-88639525D01*
X154070095Y-88525239D01*
X154603429Y-89020477D02*
X154603429Y-89325239D01*
X154870095Y-89134763D02*
X154184381Y-89134763D01*
X154108190Y-89172858D01*
X154070095Y-89249049D01*
X154070095Y-89325239D01*
X154603429Y-89515716D02*
X154070095Y-89706192D01*
X154603429Y-89896668D02*
X154070095Y-89706192D01*
X153879619Y-89630001D01*
X153841524Y-89591906D01*
X153803429Y-89515716D01*
X154603429Y-90201430D02*
X153803429Y-90201430D01*
X154565333Y-90201430D02*
X154603429Y-90277621D01*
X154603429Y-90430002D01*
X154565333Y-90506192D01*
X154527238Y-90544287D01*
X154451048Y-90582383D01*
X154222476Y-90582383D01*
X154146286Y-90544287D01*
X154108190Y-90506192D01*
X154070095Y-90430002D01*
X154070095Y-90277621D01*
X154108190Y-90201430D01*
X154108190Y-91230002D02*
X154070095Y-91153812D01*
X154070095Y-91001431D01*
X154108190Y-90925240D01*
X154184381Y-90887145D01*
X154489143Y-90887145D01*
X154565333Y-90925240D01*
X154603429Y-91001431D01*
X154603429Y-91153812D01*
X154565333Y-91230002D01*
X154489143Y-91268097D01*
X154412952Y-91268097D01*
X154336762Y-90887145D01*
X154070095Y-92220478D02*
X154870095Y-92220478D01*
X154565333Y-92220478D02*
X154603429Y-92296669D01*
X154603429Y-92449050D01*
X154565333Y-92525240D01*
X154527238Y-92563335D01*
X154451048Y-92601431D01*
X154222476Y-92601431D01*
X154146286Y-92563335D01*
X154108190Y-92525240D01*
X154070095Y-92449050D01*
X154070095Y-92296669D01*
X154108190Y-92220478D01*
X154603429Y-92868098D02*
X154070095Y-93058574D01*
X154603429Y-93249050D02*
X154070095Y-93058574D01*
X153879619Y-92982383D01*
X153841524Y-92944288D01*
X153803429Y-92868098D01*
X154070095Y-94163336D02*
X154870095Y-94163336D01*
X154070095Y-94506193D02*
X154489143Y-94506193D01*
X154565333Y-94468098D01*
X154603429Y-94391908D01*
X154603429Y-94277622D01*
X154565333Y-94201431D01*
X154527238Y-94163336D01*
X154108190Y-95191908D02*
X154070095Y-95115718D01*
X154070095Y-94963337D01*
X154108190Y-94887146D01*
X154184381Y-94849051D01*
X154489143Y-94849051D01*
X154565333Y-94887146D01*
X154603429Y-94963337D01*
X154603429Y-95115718D01*
X154565333Y-95191908D01*
X154489143Y-95230003D01*
X154412952Y-95230003D01*
X154336762Y-94849051D01*
X154603429Y-95572860D02*
X154070095Y-95572860D01*
X154527238Y-95572860D02*
X154565333Y-95610955D01*
X154603429Y-95687146D01*
X154603429Y-95801432D01*
X154565333Y-95877622D01*
X154489143Y-95915717D01*
X154070095Y-95915717D01*
X154603429Y-96296670D02*
X154070095Y-96296670D01*
X154527238Y-96296670D02*
X154565333Y-96334765D01*
X154603429Y-96410956D01*
X154603429Y-96525242D01*
X154565333Y-96601432D01*
X154489143Y-96639527D01*
X154070095Y-96639527D01*
X154070095Y-97020480D02*
X154603429Y-97020480D01*
X154870095Y-97020480D02*
X154832000Y-96982385D01*
X154793905Y-97020480D01*
X154832000Y-97058575D01*
X154870095Y-97020480D01*
X154793905Y-97020480D01*
X154603429Y-97401432D02*
X154070095Y-97401432D01*
X154527238Y-97401432D02*
X154565333Y-97439527D01*
X154603429Y-97515718D01*
X154603429Y-97630004D01*
X154565333Y-97706194D01*
X154489143Y-97744289D01*
X154070095Y-97744289D01*
X154603429Y-98468099D02*
X153955810Y-98468099D01*
X153879619Y-98430004D01*
X153841524Y-98391909D01*
X153803429Y-98315718D01*
X153803429Y-98201433D01*
X153841524Y-98125242D01*
X154108190Y-98468099D02*
X154070095Y-98391909D01*
X154070095Y-98239528D01*
X154108190Y-98163337D01*
X154146286Y-98125242D01*
X154222476Y-98087147D01*
X154451048Y-98087147D01*
X154527238Y-98125242D01*
X154565333Y-98163337D01*
X154603429Y-98239528D01*
X154603429Y-98391909D01*
X154565333Y-98468099D01*
X126350400Y-119899500D02*
X126350400Y-110899500D01*
X126350400Y-110899500D02*
X134050400Y-110899500D01*
X134050400Y-110899500D02*
X134050400Y-119899500D01*
X134050400Y-119899500D02*
X126350400Y-119899500D01*
X134600400Y-113399500D02*
X134600400Y-110899500D01*
X134600400Y-110899500D02*
X133200400Y-110899500D01*
X133200400Y-110899500D02*
X133200400Y-113399500D01*
X133200400Y-113399500D02*
X134600400Y-113399500D01*
X125800400Y-113399500D02*
X125800400Y-110899500D01*
X125800400Y-110899500D02*
X127200400Y-110899500D01*
X127200400Y-110899500D02*
X127200400Y-113399500D01*
X127200400Y-113399500D02*
X125800400Y-113399500D01*
X127000400Y-117149500D02*
X133400400Y-117149500D01*
X133400400Y-117149500D02*
X133400400Y-120399500D01*
X133400400Y-120399500D02*
X127000400Y-120399500D01*
X127000400Y-120399500D02*
X127000400Y-117149500D01*
X132735000Y-85975000D02*
X132735000Y-82975000D01*
X135235000Y-82975000D02*
X135235000Y-85975000D01*
X128290000Y-91690000D02*
X128290000Y-88690000D01*
X130790000Y-88690000D02*
X130790000Y-91690000D01*
X130790000Y-93730000D02*
X130790000Y-96730000D01*
X128290000Y-96730000D02*
X128290000Y-93730000D01*
X125980000Y-78720000D02*
X122980000Y-78720000D01*
X122980000Y-76220000D02*
X125980000Y-76220000D01*
X128020000Y-76220000D02*
X131020000Y-76220000D01*
X131020000Y-78720000D02*
X128020000Y-78720000D01*
X135235000Y-65790000D02*
X135235000Y-68790000D01*
X132735000Y-68790000D02*
X132735000Y-65790000D01*
X137295000Y-61205000D02*
X137295000Y-62475000D01*
X152265000Y-61205000D02*
X152265000Y-62475000D01*
X152265000Y-114055000D02*
X152265000Y-112785000D01*
X137295000Y-114055000D02*
X137295000Y-112785000D01*
X137295000Y-61205000D02*
X152265000Y-61205000D01*
X137295000Y-114055000D02*
X152265000Y-114055000D01*
X137295000Y-62475000D02*
X136360000Y-62475000D01*
X120680000Y-108230000D02*
X120680000Y-106680000D01*
X119380000Y-108230000D02*
X120680000Y-108230000D01*
X115189000Y-106807000D02*
X109347000Y-106807000D01*
X109347000Y-106807000D02*
X109347000Y-106553000D01*
X109347000Y-106553000D02*
X115189000Y-106553000D01*
X115189000Y-106553000D02*
X115189000Y-106680000D01*
X115189000Y-106680000D02*
X109347000Y-106680000D01*
X117856000Y-89154000D02*
X118237000Y-89154000D01*
X117856000Y-88646000D02*
X118237000Y-88646000D01*
X117856000Y-86614000D02*
X118237000Y-86614000D01*
X117856000Y-86106000D02*
X118237000Y-86106000D01*
X117856000Y-84074000D02*
X118237000Y-84074000D01*
X117856000Y-83566000D02*
X118237000Y-83566000D01*
X117856000Y-81534000D02*
X118237000Y-81534000D01*
X117856000Y-81026000D02*
X118237000Y-81026000D01*
X117856000Y-70866000D02*
X118237000Y-70866000D01*
X117856000Y-71374000D02*
X118237000Y-71374000D01*
X117856000Y-73406000D02*
X118237000Y-73406000D01*
X117856000Y-73914000D02*
X118237000Y-73914000D01*
X117856000Y-75946000D02*
X118237000Y-75946000D01*
X117856000Y-76454000D02*
X118237000Y-76454000D01*
X117856000Y-78486000D02*
X118237000Y-78486000D01*
X117856000Y-78994000D02*
X118237000Y-78994000D01*
X117856000Y-68326000D02*
X118237000Y-68326000D01*
X117856000Y-68834000D02*
X118237000Y-68834000D01*
X117856000Y-106934000D02*
X118237000Y-106934000D01*
X117856000Y-106426000D02*
X118237000Y-106426000D01*
X117856000Y-104394000D02*
X118237000Y-104394000D01*
X117856000Y-103886000D02*
X118237000Y-103886000D01*
X117856000Y-101854000D02*
X118237000Y-101854000D01*
X117856000Y-101346000D02*
X118237000Y-101346000D01*
X117856000Y-91186000D02*
X118237000Y-91186000D01*
X117856000Y-91694000D02*
X118237000Y-91694000D01*
X117856000Y-93726000D02*
X118237000Y-93726000D01*
X117856000Y-94234000D02*
X118237000Y-94234000D01*
X117856000Y-96266000D02*
X118237000Y-96266000D01*
X117856000Y-96774000D02*
X118237000Y-96774000D01*
X117856000Y-98806000D02*
X118237000Y-98806000D01*
X117856000Y-99314000D02*
X118237000Y-99314000D01*
X117856000Y-92710000D02*
X115316000Y-92710000D01*
X117856000Y-92710000D02*
X117856000Y-90170000D01*
X117856000Y-90170000D02*
X115316000Y-90170000D01*
X115316000Y-91694000D02*
X109220000Y-91694000D01*
X109220000Y-91694000D02*
X109220000Y-91186000D01*
X109220000Y-91186000D02*
X115316000Y-91186000D01*
X115316000Y-90170000D02*
X115316000Y-92710000D01*
X115316000Y-87630000D02*
X115316000Y-90170000D01*
X109220000Y-88646000D02*
X115316000Y-88646000D01*
X109220000Y-89154000D02*
X109220000Y-88646000D01*
X115316000Y-89154000D02*
X109220000Y-89154000D01*
X117856000Y-87630000D02*
X115316000Y-87630000D01*
X117856000Y-90170000D02*
X117856000Y-87630000D01*
X117856000Y-90170000D02*
X115316000Y-90170000D01*
X117856000Y-85090000D02*
X115316000Y-85090000D01*
X117856000Y-85090000D02*
X117856000Y-82550000D01*
X117856000Y-82550000D02*
X115316000Y-82550000D01*
X115316000Y-84074000D02*
X109220000Y-84074000D01*
X109220000Y-84074000D02*
X109220000Y-83566000D01*
X109220000Y-83566000D02*
X115316000Y-83566000D01*
X115316000Y-82550000D02*
X115316000Y-85090000D01*
X115316000Y-85090000D02*
X115316000Y-87630000D01*
X109220000Y-86106000D02*
X115316000Y-86106000D01*
X109220000Y-86614000D02*
X109220000Y-86106000D01*
X115316000Y-86614000D02*
X109220000Y-86614000D01*
X117856000Y-85090000D02*
X115316000Y-85090000D01*
X117856000Y-87630000D02*
X117856000Y-85090000D01*
X117856000Y-87630000D02*
X115316000Y-87630000D01*
X117856000Y-77470000D02*
X115316000Y-77470000D01*
X117856000Y-77470000D02*
X117856000Y-74930000D01*
X117856000Y-74930000D02*
X115316000Y-74930000D01*
X115316000Y-76454000D02*
X109220000Y-76454000D01*
X109220000Y-76454000D02*
X109220000Y-75946000D01*
X109220000Y-75946000D02*
X115316000Y-75946000D01*
X115316000Y-74930000D02*
X115316000Y-77470000D01*
X115316000Y-72390000D02*
X115316000Y-74930000D01*
X109220000Y-73406000D02*
X115316000Y-73406000D01*
X109220000Y-73914000D02*
X109220000Y-73406000D01*
X115316000Y-73914000D02*
X109220000Y-73914000D01*
X117856000Y-72390000D02*
X115316000Y-72390000D01*
X117856000Y-74930000D02*
X117856000Y-72390000D01*
X117856000Y-74930000D02*
X115316000Y-74930000D01*
X117856000Y-80010000D02*
X115316000Y-80010000D01*
X117856000Y-80010000D02*
X117856000Y-77470000D01*
X117856000Y-77470000D02*
X115316000Y-77470000D01*
X115316000Y-78994000D02*
X109220000Y-78994000D01*
X109220000Y-78994000D02*
X109220000Y-78486000D01*
X109220000Y-78486000D02*
X115316000Y-78486000D01*
X115316000Y-77470000D02*
X115316000Y-80010000D01*
X115316000Y-80010000D02*
X115316000Y-82550000D01*
X109220000Y-81026000D02*
X115316000Y-81026000D01*
X109220000Y-81534000D02*
X109220000Y-81026000D01*
X115316000Y-81534000D02*
X109220000Y-81534000D01*
X117856000Y-80010000D02*
X115316000Y-80010000D01*
X117856000Y-82550000D02*
X117856000Y-80010000D01*
X117856000Y-82550000D02*
X115316000Y-82550000D01*
X117856000Y-69850000D02*
X115316000Y-69850000D01*
X117856000Y-69850000D02*
X117856000Y-67310000D01*
X117856000Y-67310000D02*
X115316000Y-67310000D01*
X115316000Y-68834000D02*
X109220000Y-68834000D01*
X109220000Y-68834000D02*
X109220000Y-68326000D01*
X109220000Y-68326000D02*
X115316000Y-68326000D01*
X115316000Y-67310000D02*
X115316000Y-69850000D01*
X115316000Y-69850000D02*
X115316000Y-72390000D01*
X109220000Y-70866000D02*
X115316000Y-70866000D01*
X109220000Y-71374000D02*
X109220000Y-70866000D01*
X115316000Y-71374000D02*
X109220000Y-71374000D01*
X117856000Y-69850000D02*
X115316000Y-69850000D01*
X117856000Y-72390000D02*
X117856000Y-69850000D01*
X117856000Y-72390000D02*
X115316000Y-72390000D01*
X117856000Y-107950000D02*
X115316000Y-107950000D01*
X117856000Y-105410000D02*
X115316000Y-105410000D01*
X117856000Y-105410000D02*
X117856000Y-102870000D01*
X117856000Y-102870000D02*
X115316000Y-102870000D01*
X115316000Y-104394000D02*
X109220000Y-104394000D01*
X109220000Y-104394000D02*
X109220000Y-103886000D01*
X109220000Y-103886000D02*
X115316000Y-103886000D01*
X115316000Y-102870000D02*
X115316000Y-105410000D01*
X115316000Y-105410000D02*
X115316000Y-107950000D01*
X109220000Y-106426000D02*
X115316000Y-106426000D01*
X109220000Y-106934000D02*
X109220000Y-106426000D01*
X115316000Y-106934000D02*
X109220000Y-106934000D01*
X117856000Y-105410000D02*
X115316000Y-105410000D01*
X117856000Y-107950000D02*
X117856000Y-105410000D01*
X117856000Y-97790000D02*
X115316000Y-97790000D01*
X117856000Y-97790000D02*
X117856000Y-95250000D01*
X117856000Y-95250000D02*
X115316000Y-95250000D01*
X115316000Y-96774000D02*
X109220000Y-96774000D01*
X109220000Y-96774000D02*
X109220000Y-96266000D01*
X109220000Y-96266000D02*
X115316000Y-96266000D01*
X115316000Y-95250000D02*
X115316000Y-97790000D01*
X115316000Y-92710000D02*
X115316000Y-95250000D01*
X109220000Y-93726000D02*
X115316000Y-93726000D01*
X109220000Y-94234000D02*
X109220000Y-93726000D01*
X115316000Y-94234000D02*
X109220000Y-94234000D01*
X117856000Y-92710000D02*
X115316000Y-92710000D01*
X117856000Y-95250000D02*
X117856000Y-92710000D01*
X117856000Y-95250000D02*
X115316000Y-95250000D01*
X117856000Y-100330000D02*
X115316000Y-100330000D01*
X117856000Y-100330000D02*
X117856000Y-97790000D01*
X117856000Y-97790000D02*
X115316000Y-97790000D01*
X115316000Y-99314000D02*
X109220000Y-99314000D01*
X109220000Y-99314000D02*
X109220000Y-98806000D01*
X109220000Y-98806000D02*
X115316000Y-98806000D01*
X115316000Y-97790000D02*
X115316000Y-100330000D01*
X115316000Y-100330000D02*
X115316000Y-102870000D01*
X109220000Y-101346000D02*
X115316000Y-101346000D01*
X109220000Y-101854000D02*
X109220000Y-101346000D01*
X115316000Y-101854000D02*
X109220000Y-101854000D01*
X117856000Y-100330000D02*
X115316000Y-100330000D01*
X117856000Y-102870000D02*
X117856000Y-100330000D01*
X117856000Y-102870000D02*
X115316000Y-102870000D01*
X156490000Y-114270000D02*
X154940000Y-114270000D01*
X156490000Y-115570000D02*
X156490000Y-114270000D01*
X155067000Y-119761000D02*
X155067000Y-125603000D01*
X155067000Y-125603000D02*
X154813000Y-125603000D01*
X154813000Y-125603000D02*
X154813000Y-119761000D01*
X154813000Y-119761000D02*
X154940000Y-119761000D01*
X154940000Y-119761000D02*
X154940000Y-125603000D01*
X137414000Y-117094000D02*
X137414000Y-116713000D01*
X136906000Y-117094000D02*
X136906000Y-116713000D01*
X155194000Y-117094000D02*
X155194000Y-116713000D01*
X154686000Y-117094000D02*
X154686000Y-116713000D01*
X152654000Y-117094000D02*
X152654000Y-116713000D01*
X152146000Y-117094000D02*
X152146000Y-116713000D01*
X150114000Y-117094000D02*
X150114000Y-116713000D01*
X149606000Y-117094000D02*
X149606000Y-116713000D01*
X139446000Y-117094000D02*
X139446000Y-116713000D01*
X139954000Y-117094000D02*
X139954000Y-116713000D01*
X141986000Y-117094000D02*
X141986000Y-116713000D01*
X142494000Y-117094000D02*
X142494000Y-116713000D01*
X144526000Y-117094000D02*
X144526000Y-116713000D01*
X145034000Y-117094000D02*
X145034000Y-116713000D01*
X147066000Y-117094000D02*
X147066000Y-116713000D01*
X147574000Y-117094000D02*
X147574000Y-116713000D01*
X140970000Y-117094000D02*
X140970000Y-119634000D01*
X140970000Y-117094000D02*
X138430000Y-117094000D01*
X138430000Y-117094000D02*
X138430000Y-119634000D01*
X139954000Y-119634000D02*
X139954000Y-125730000D01*
X139954000Y-125730000D02*
X139446000Y-125730000D01*
X139446000Y-125730000D02*
X139446000Y-119634000D01*
X138430000Y-119634000D02*
X140970000Y-119634000D01*
X135890000Y-119634000D02*
X138430000Y-119634000D01*
X136906000Y-125730000D02*
X136906000Y-119634000D01*
X137414000Y-125730000D02*
X136906000Y-125730000D01*
X137414000Y-119634000D02*
X137414000Y-125730000D01*
X138430000Y-117094000D02*
X135890000Y-117094000D01*
X138430000Y-117094000D02*
X138430000Y-119634000D01*
X135890000Y-117094000D02*
X135890000Y-119634000D01*
X156210000Y-117094000D02*
X156210000Y-119634000D01*
X153670000Y-117094000D02*
X153670000Y-119634000D01*
X153670000Y-117094000D02*
X151130000Y-117094000D01*
X151130000Y-117094000D02*
X151130000Y-119634000D01*
X152654000Y-119634000D02*
X152654000Y-125730000D01*
X152654000Y-125730000D02*
X152146000Y-125730000D01*
X152146000Y-125730000D02*
X152146000Y-119634000D01*
X151130000Y-119634000D02*
X153670000Y-119634000D01*
X153670000Y-119634000D02*
X156210000Y-119634000D01*
X154686000Y-125730000D02*
X154686000Y-119634000D01*
X155194000Y-125730000D02*
X154686000Y-125730000D01*
X155194000Y-119634000D02*
X155194000Y-125730000D01*
X153670000Y-117094000D02*
X153670000Y-119634000D01*
X156210000Y-117094000D02*
X153670000Y-117094000D01*
X146050000Y-117094000D02*
X146050000Y-119634000D01*
X146050000Y-117094000D02*
X143510000Y-117094000D01*
X143510000Y-117094000D02*
X143510000Y-119634000D01*
X145034000Y-119634000D02*
X145034000Y-125730000D01*
X145034000Y-125730000D02*
X144526000Y-125730000D01*
X144526000Y-125730000D02*
X144526000Y-119634000D01*
X143510000Y-119634000D02*
X146050000Y-119634000D01*
X140970000Y-119634000D02*
X143510000Y-119634000D01*
X141986000Y-125730000D02*
X141986000Y-119634000D01*
X142494000Y-125730000D02*
X141986000Y-125730000D01*
X142494000Y-119634000D02*
X142494000Y-125730000D01*
X140970000Y-117094000D02*
X140970000Y-119634000D01*
X143510000Y-117094000D02*
X140970000Y-117094000D01*
X143510000Y-117094000D02*
X143510000Y-119634000D01*
X148590000Y-117094000D02*
X148590000Y-119634000D01*
X148590000Y-117094000D02*
X146050000Y-117094000D01*
X146050000Y-117094000D02*
X146050000Y-119634000D01*
X147574000Y-119634000D02*
X147574000Y-125730000D01*
X147574000Y-125730000D02*
X147066000Y-125730000D01*
X147066000Y-125730000D02*
X147066000Y-119634000D01*
X146050000Y-119634000D02*
X148590000Y-119634000D01*
X148590000Y-119634000D02*
X151130000Y-119634000D01*
X149606000Y-125730000D02*
X149606000Y-119634000D01*
X150114000Y-125730000D02*
X149606000Y-125730000D01*
X150114000Y-119634000D02*
X150114000Y-125730000D01*
X148590000Y-117094000D02*
X148590000Y-119634000D01*
X151130000Y-117094000D02*
X148590000Y-117094000D01*
X151130000Y-117094000D02*
X151130000Y-119634000D01*
X124740000Y-114270000D02*
X123190000Y-114270000D01*
X124740000Y-115570000D02*
X124740000Y-114270000D01*
X123317000Y-119761000D02*
X123317000Y-125603000D01*
X123317000Y-125603000D02*
X123063000Y-125603000D01*
X123063000Y-125603000D02*
X123063000Y-119761000D01*
X123063000Y-119761000D02*
X123190000Y-119761000D01*
X123190000Y-119761000D02*
X123190000Y-125603000D01*
X123444000Y-117094000D02*
X123444000Y-116713000D01*
X122936000Y-117094000D02*
X122936000Y-116713000D01*
X120904000Y-117094000D02*
X120904000Y-116713000D01*
X120396000Y-117094000D02*
X120396000Y-116713000D01*
X118364000Y-117094000D02*
X118364000Y-116713000D01*
X117856000Y-117094000D02*
X117856000Y-116713000D01*
X121920000Y-119634000D02*
X124460000Y-119634000D01*
X122936000Y-125730000D02*
X122936000Y-119634000D01*
X123444000Y-125730000D02*
X122936000Y-125730000D01*
X123444000Y-119634000D02*
X123444000Y-125730000D01*
X121920000Y-117094000D02*
X121920000Y-119634000D01*
X124460000Y-117094000D02*
X121920000Y-117094000D01*
X124460000Y-117094000D02*
X124460000Y-119634000D01*
X119380000Y-117094000D02*
X119380000Y-119634000D01*
X119380000Y-117094000D02*
X116840000Y-117094000D01*
X118364000Y-119634000D02*
X118364000Y-125730000D01*
X118364000Y-125730000D02*
X117856000Y-125730000D01*
X117856000Y-125730000D02*
X117856000Y-119634000D01*
X116840000Y-119634000D02*
X119380000Y-119634000D01*
X119380000Y-119634000D02*
X121920000Y-119634000D01*
X120396000Y-125730000D02*
X120396000Y-119634000D01*
X120904000Y-125730000D02*
X120396000Y-125730000D01*
X120904000Y-119634000D02*
X120904000Y-125730000D01*
X119380000Y-117094000D02*
X119380000Y-119634000D01*
X121920000Y-117094000D02*
X119380000Y-117094000D01*
X121920000Y-117094000D02*
X121920000Y-119634000D01*
X116840000Y-117094000D02*
X116840000Y-119634000D01*
X154910000Y-67030000D02*
X154910000Y-68580000D01*
X156210000Y-67030000D02*
X154910000Y-67030000D01*
X160401000Y-68453000D02*
X166243000Y-68453000D01*
X166243000Y-68453000D02*
X166243000Y-68707000D01*
X166243000Y-68707000D02*
X160401000Y-68707000D01*
X160401000Y-68707000D02*
X160401000Y-68580000D01*
X160401000Y-68580000D02*
X166243000Y-68580000D01*
X157734000Y-86106000D02*
X157353000Y-86106000D01*
X157734000Y-86614000D02*
X157353000Y-86614000D01*
X157734000Y-88646000D02*
X157353000Y-88646000D01*
X157734000Y-89154000D02*
X157353000Y-89154000D01*
X157734000Y-91186000D02*
X157353000Y-91186000D01*
X157734000Y-91694000D02*
X157353000Y-91694000D01*
X157734000Y-93726000D02*
X157353000Y-93726000D01*
X157734000Y-94234000D02*
X157353000Y-94234000D01*
X157734000Y-104394000D02*
X157353000Y-104394000D01*
X157734000Y-103886000D02*
X157353000Y-103886000D01*
X157734000Y-101854000D02*
X157353000Y-101854000D01*
X157734000Y-101346000D02*
X157353000Y-101346000D01*
X157734000Y-99314000D02*
X157353000Y-99314000D01*
X157734000Y-98806000D02*
X157353000Y-98806000D01*
X157734000Y-96774000D02*
X157353000Y-96774000D01*
X157734000Y-96266000D02*
X157353000Y-96266000D01*
X157734000Y-106934000D02*
X157353000Y-106934000D01*
X157734000Y-106426000D02*
X157353000Y-106426000D01*
X157734000Y-68326000D02*
X157353000Y-68326000D01*
X157734000Y-68834000D02*
X157353000Y-68834000D01*
X157734000Y-70866000D02*
X157353000Y-70866000D01*
X157734000Y-71374000D02*
X157353000Y-71374000D01*
X157734000Y-73406000D02*
X157353000Y-73406000D01*
X157734000Y-73914000D02*
X157353000Y-73914000D01*
X157734000Y-84074000D02*
X157353000Y-84074000D01*
X157734000Y-83566000D02*
X157353000Y-83566000D01*
X157734000Y-81534000D02*
X157353000Y-81534000D01*
X157734000Y-81026000D02*
X157353000Y-81026000D01*
X157734000Y-78994000D02*
X157353000Y-78994000D01*
X157734000Y-78486000D02*
X157353000Y-78486000D01*
X157734000Y-76454000D02*
X157353000Y-76454000D01*
X157734000Y-75946000D02*
X157353000Y-75946000D01*
X157734000Y-82550000D02*
X160274000Y-82550000D01*
X157734000Y-82550000D02*
X157734000Y-85090000D01*
X157734000Y-85090000D02*
X160274000Y-85090000D01*
X160274000Y-83566000D02*
X166370000Y-83566000D01*
X166370000Y-83566000D02*
X166370000Y-84074000D01*
X166370000Y-84074000D02*
X160274000Y-84074000D01*
X160274000Y-85090000D02*
X160274000Y-82550000D01*
X160274000Y-87630000D02*
X160274000Y-85090000D01*
X166370000Y-86614000D02*
X160274000Y-86614000D01*
X166370000Y-86106000D02*
X166370000Y-86614000D01*
X160274000Y-86106000D02*
X166370000Y-86106000D01*
X157734000Y-87630000D02*
X160274000Y-87630000D01*
X157734000Y-85090000D02*
X157734000Y-87630000D01*
X157734000Y-85090000D02*
X160274000Y-85090000D01*
X157734000Y-90170000D02*
X160274000Y-90170000D01*
X157734000Y-90170000D02*
X157734000Y-92710000D01*
X157734000Y-92710000D02*
X160274000Y-92710000D01*
X160274000Y-91186000D02*
X166370000Y-91186000D01*
X166370000Y-91186000D02*
X166370000Y-91694000D01*
X166370000Y-91694000D02*
X160274000Y-91694000D01*
X160274000Y-92710000D02*
X160274000Y-90170000D01*
X160274000Y-90170000D02*
X160274000Y-87630000D01*
X166370000Y-89154000D02*
X160274000Y-89154000D01*
X166370000Y-88646000D02*
X166370000Y-89154000D01*
X160274000Y-88646000D02*
X166370000Y-88646000D01*
X157734000Y-90170000D02*
X160274000Y-90170000D01*
X157734000Y-87630000D02*
X157734000Y-90170000D01*
X157734000Y-87630000D02*
X160274000Y-87630000D01*
X157734000Y-97790000D02*
X160274000Y-97790000D01*
X157734000Y-97790000D02*
X157734000Y-100330000D01*
X157734000Y-100330000D02*
X160274000Y-100330000D01*
X160274000Y-98806000D02*
X166370000Y-98806000D01*
X166370000Y-98806000D02*
X166370000Y-99314000D01*
X166370000Y-99314000D02*
X160274000Y-99314000D01*
X160274000Y-100330000D02*
X160274000Y-97790000D01*
X160274000Y-102870000D02*
X160274000Y-100330000D01*
X166370000Y-101854000D02*
X160274000Y-101854000D01*
X166370000Y-101346000D02*
X166370000Y-101854000D01*
X160274000Y-101346000D02*
X166370000Y-101346000D01*
X157734000Y-102870000D02*
X160274000Y-102870000D01*
X157734000Y-100330000D02*
X157734000Y-102870000D01*
X157734000Y-100330000D02*
X160274000Y-100330000D01*
X157734000Y-95250000D02*
X160274000Y-95250000D01*
X157734000Y-95250000D02*
X157734000Y-97790000D01*
X157734000Y-97790000D02*
X160274000Y-97790000D01*
X160274000Y-96266000D02*
X166370000Y-96266000D01*
X166370000Y-96266000D02*
X166370000Y-96774000D01*
X166370000Y-96774000D02*
X160274000Y-96774000D01*
X160274000Y-97790000D02*
X160274000Y-95250000D01*
X160274000Y-95250000D02*
X160274000Y-92710000D01*
X166370000Y-94234000D02*
X160274000Y-94234000D01*
X166370000Y-93726000D02*
X166370000Y-94234000D01*
X160274000Y-93726000D02*
X166370000Y-93726000D01*
X157734000Y-95250000D02*
X160274000Y-95250000D01*
X157734000Y-92710000D02*
X157734000Y-95250000D01*
X157734000Y-92710000D02*
X160274000Y-92710000D01*
X157734000Y-105410000D02*
X160274000Y-105410000D01*
X157734000Y-105410000D02*
X157734000Y-107950000D01*
X157734000Y-107950000D02*
X160274000Y-107950000D01*
X160274000Y-106426000D02*
X166370000Y-106426000D01*
X166370000Y-106426000D02*
X166370000Y-106934000D01*
X166370000Y-106934000D02*
X160274000Y-106934000D01*
X160274000Y-107950000D02*
X160274000Y-105410000D01*
X160274000Y-105410000D02*
X160274000Y-102870000D01*
X166370000Y-104394000D02*
X160274000Y-104394000D01*
X166370000Y-103886000D02*
X166370000Y-104394000D01*
X160274000Y-103886000D02*
X166370000Y-103886000D01*
X157734000Y-105410000D02*
X160274000Y-105410000D01*
X157734000Y-102870000D02*
X157734000Y-105410000D01*
X157734000Y-102870000D02*
X160274000Y-102870000D01*
X157734000Y-67310000D02*
X160274000Y-67310000D01*
X157734000Y-69850000D02*
X160274000Y-69850000D01*
X157734000Y-69850000D02*
X157734000Y-72390000D01*
X157734000Y-72390000D02*
X160274000Y-72390000D01*
X160274000Y-70866000D02*
X166370000Y-70866000D01*
X166370000Y-70866000D02*
X166370000Y-71374000D01*
X166370000Y-71374000D02*
X160274000Y-71374000D01*
X160274000Y-72390000D02*
X160274000Y-69850000D01*
X160274000Y-69850000D02*
X160274000Y-67310000D01*
X166370000Y-68834000D02*
X160274000Y-68834000D01*
X166370000Y-68326000D02*
X166370000Y-68834000D01*
X160274000Y-68326000D02*
X166370000Y-68326000D01*
X157734000Y-69850000D02*
X160274000Y-69850000D01*
X157734000Y-67310000D02*
X157734000Y-69850000D01*
X157734000Y-77470000D02*
X160274000Y-77470000D01*
X157734000Y-77470000D02*
X157734000Y-80010000D01*
X157734000Y-80010000D02*
X160274000Y-80010000D01*
X160274000Y-78486000D02*
X166370000Y-78486000D01*
X166370000Y-78486000D02*
X166370000Y-78994000D01*
X166370000Y-78994000D02*
X160274000Y-78994000D01*
X160274000Y-80010000D02*
X160274000Y-77470000D01*
X160274000Y-82550000D02*
X160274000Y-80010000D01*
X166370000Y-81534000D02*
X160274000Y-81534000D01*
X166370000Y-81026000D02*
X166370000Y-81534000D01*
X160274000Y-81026000D02*
X166370000Y-81026000D01*
X157734000Y-82550000D02*
X160274000Y-82550000D01*
X157734000Y-80010000D02*
X157734000Y-82550000D01*
X157734000Y-80010000D02*
X160274000Y-80010000D01*
X157734000Y-74930000D02*
X160274000Y-74930000D01*
X157734000Y-74930000D02*
X157734000Y-77470000D01*
X157734000Y-77470000D02*
X160274000Y-77470000D01*
X160274000Y-75946000D02*
X166370000Y-75946000D01*
X166370000Y-75946000D02*
X166370000Y-76454000D01*
X166370000Y-76454000D02*
X160274000Y-76454000D01*
X160274000Y-77470000D02*
X160274000Y-74930000D01*
X160274000Y-74930000D02*
X160274000Y-72390000D01*
X166370000Y-73914000D02*
X160274000Y-73914000D01*
X166370000Y-73406000D02*
X166370000Y-73914000D01*
X160274000Y-73406000D02*
X166370000Y-73406000D01*
X157734000Y-74930000D02*
X160274000Y-74930000D01*
X157734000Y-72390000D02*
X157734000Y-74930000D01*
X157734000Y-72390000D02*
X160274000Y-72390000D01*
X126160000Y-88470000D02*
X122760000Y-88470000D01*
X126157056Y-88472944D02*
G75*
G02X124460000Y-92570000I-1697056J-1697056D01*
G01*
X122762944Y-88472944D02*
G75*
G03X124460000Y-92570000I1697056J-1697056D01*
G01*
X130429000Y-86487000D02*
X130048000Y-86106000D01*
X131064000Y-85598000D02*
X130683000Y-85344000D01*
X124333000Y-85598000D02*
X124714000Y-85344000D01*
X124968000Y-86487000D02*
X125222000Y-86233000D01*
X128143000Y-80518000D02*
X128143000Y-80137000D01*
X127254000Y-80518000D02*
X127254000Y-80137000D01*
X130937000Y-83820000D02*
G75*
G03X130937000Y-83820000I-3302000J0D01*
G01*
X131445000Y-83820000D02*
G75*
G03X131445000Y-83820000I-3810000J0D01*
G01*
X123325000Y-63745000D02*
X123325000Y-65015000D01*
X130675000Y-63745000D02*
X130675000Y-65015000D01*
X130675000Y-75955000D02*
X130675000Y-74685000D01*
X123325000Y-75955000D02*
X123325000Y-74685000D01*
X123325000Y-63745000D02*
X130675000Y-63745000D01*
X123325000Y-75955000D02*
X130675000Y-75955000D01*
X123325000Y-65015000D02*
X122390000Y-65015000D01*
X134350760Y-97409000D02*
X133949440Y-97609660D01*
X133949440Y-97609660D02*
X133350000Y-97711260D01*
X133350000Y-97711260D02*
X132849620Y-97609660D01*
X132849620Y-97609660D02*
X132151120Y-97210880D01*
X132151120Y-97210880D02*
X131749800Y-96608900D01*
X131749800Y-96608900D02*
X131549140Y-96009460D01*
X131549140Y-96009460D02*
X131549140Y-89410540D01*
X131549140Y-89410540D02*
X131749800Y-88709500D01*
X131749800Y-88709500D02*
X132049520Y-88310720D01*
X132049520Y-88310720D02*
X132549900Y-87909400D01*
X132549900Y-87909400D02*
X133149340Y-87708740D01*
X133149340Y-87708740D02*
X133649720Y-87708740D01*
X133649720Y-87708740D02*
X134150100Y-87909400D01*
X134150100Y-87909400D02*
X134749540Y-88409780D01*
X134749540Y-88409780D02*
X135049260Y-88910160D01*
X135049260Y-88910160D02*
X135150860Y-89410540D01*
X135150860Y-89509600D02*
X135150860Y-96111060D01*
X135150860Y-96111060D02*
X135049260Y-96509840D01*
X135049260Y-96509840D02*
X134749540Y-97010220D01*
X134749540Y-97010220D02*
X134249160Y-97510600D01*
X135679180Y-89519760D02*
X135630920Y-89060020D01*
X135630920Y-89060020D02*
X135519160Y-88661240D01*
X135519160Y-88661240D02*
X135300720Y-88229440D01*
X135300720Y-88229440D02*
X135069580Y-87939880D01*
X135069580Y-87939880D02*
X134719060Y-87609680D01*
X134719060Y-87609680D02*
X134180580Y-87320120D01*
X134180580Y-87320120D02*
X133581140Y-87190580D01*
X133581140Y-87190580D02*
X133070600Y-87190580D01*
X133070600Y-87190580D02*
X132369560Y-87360760D01*
X132369560Y-87360760D02*
X131780280Y-87759540D01*
X131780280Y-87759540D02*
X131409440Y-88219280D01*
X131409440Y-88219280D02*
X131201160Y-88640920D01*
X131201160Y-88640920D02*
X131041140Y-89090500D01*
X131041140Y-89090500D02*
X131010660Y-89529920D01*
X131229100Y-96870520D02*
X131450080Y-97248980D01*
X131450080Y-97248980D02*
X131729480Y-97569020D01*
X131729480Y-97569020D02*
X132059680Y-97820480D01*
X132059680Y-97820480D02*
X132610860Y-98120200D01*
X132610860Y-98120200D02*
X133080760Y-98229420D01*
X133080760Y-98229420D02*
X133540500Y-98249740D01*
X133540500Y-98249740D02*
X134000240Y-98160840D01*
X134000240Y-98160840D02*
X134449820Y-97970340D01*
X134449820Y-97970340D02*
X134919720Y-97609660D01*
X134919720Y-97609660D02*
X135239760Y-97259140D01*
X135239760Y-97259140D02*
X135470900Y-96870520D01*
X135470900Y-96870520D02*
X135610600Y-96441260D01*
X135610600Y-96441260D02*
X135679180Y-95999300D01*
X131020820Y-89509600D02*
X131020820Y-95961200D01*
X131020820Y-95961200D02*
X131058920Y-96380300D01*
X131058920Y-96380300D02*
X131229100Y-96870520D01*
X135679180Y-89509600D02*
X135679180Y-95961200D01*
X123799600Y-107772200D02*
X121843800Y-107772200D01*
X121869200Y-108026200D02*
X123748800Y-108026200D01*
X121793000Y-107899200D02*
X123799600Y-107899200D01*
X122809000Y-109728000D02*
X122809000Y-109220000D01*
X122809000Y-102108000D02*
X122809000Y-102616000D01*
X122809000Y-102616000D02*
X121793000Y-102616000D01*
X121793000Y-102616000D02*
X121793000Y-109220000D01*
X121793000Y-109220000D02*
X123825000Y-109220000D01*
X123825000Y-109220000D02*
X123825000Y-102616000D01*
X123825000Y-102616000D02*
X122809000Y-102616000D01*
X134975600Y-107772200D02*
X133019800Y-107772200D01*
X133045200Y-108026200D02*
X134924800Y-108026200D01*
X132969000Y-107899200D02*
X134975600Y-107899200D01*
X133985000Y-109728000D02*
X133985000Y-109220000D01*
X133985000Y-102108000D02*
X133985000Y-102616000D01*
X133985000Y-102616000D02*
X132969000Y-102616000D01*
X132969000Y-102616000D02*
X132969000Y-109220000D01*
X132969000Y-109220000D02*
X135001000Y-109220000D01*
X135001000Y-109220000D02*
X135001000Y-102616000D01*
X135001000Y-102616000D02*
X133985000Y-102616000D01*
X128397000Y-109728000D02*
X128397000Y-109220000D01*
X128397000Y-102108000D02*
X128397000Y-102616000D01*
X128397000Y-102616000D02*
X127381000Y-102616000D01*
X127381000Y-102616000D02*
X127381000Y-109220000D01*
X127381000Y-109220000D02*
X129413000Y-109220000D01*
X129413000Y-109220000D02*
X129413000Y-102616000D01*
X129413000Y-102616000D02*
X128397000Y-102616000D01*
X127889000Y-109220000D02*
X127381000Y-108712000D01*
X131191000Y-109728000D02*
X131191000Y-109220000D01*
X131191000Y-102108000D02*
X131191000Y-102616000D01*
X131191000Y-102616000D02*
X130175000Y-102616000D01*
X130175000Y-102616000D02*
X130175000Y-109220000D01*
X130175000Y-109220000D02*
X132207000Y-109220000D01*
X132207000Y-109220000D02*
X132207000Y-102616000D01*
X132207000Y-102616000D02*
X131191000Y-102616000D01*
X130683000Y-109220000D02*
X130175000Y-108712000D01*
X125603000Y-109728000D02*
X125603000Y-109220000D01*
X125603000Y-102108000D02*
X125603000Y-102616000D01*
X125603000Y-102616000D02*
X124587000Y-102616000D01*
X124587000Y-102616000D02*
X124587000Y-109220000D01*
X124587000Y-109220000D02*
X126619000Y-109220000D01*
X126619000Y-109220000D02*
X126619000Y-102616000D01*
X126619000Y-102616000D02*
X125603000Y-102616000D01*
X125095000Y-109220000D02*
X124587000Y-108712000D01*
X121920000Y-87630000D02*
X121920000Y-87122000D01*
X121920000Y-80010000D02*
X121920000Y-80518000D01*
X121920000Y-80518000D02*
X120904000Y-80518000D01*
X120904000Y-80518000D02*
X120904000Y-87122000D01*
X120904000Y-87122000D02*
X122936000Y-87122000D01*
X122936000Y-87122000D02*
X122936000Y-80518000D01*
X122936000Y-80518000D02*
X121920000Y-80518000D01*
X121412000Y-87122000D02*
X120904000Y-86614000D01*
X133985000Y-71120000D02*
X133985000Y-71628000D01*
X133985000Y-78740000D02*
X133985000Y-78232000D01*
X133985000Y-78232000D02*
X135001000Y-78232000D01*
X135001000Y-78232000D02*
X135001000Y-71628000D01*
X135001000Y-71628000D02*
X132969000Y-71628000D01*
X132969000Y-71628000D02*
X132969000Y-78232000D01*
X132969000Y-78232000D02*
X133985000Y-78232000D01*
X134493000Y-71628000D02*
X135001000Y-72136000D01*
X124460000Y-93345000D02*
X121920000Y-93345000D01*
X121920000Y-93345000D02*
X121920000Y-95885000D01*
X121920000Y-95885000D02*
X124460000Y-95885000D01*
X124460000Y-93345000D02*
X127000000Y-93345000D01*
X124460000Y-95885000D02*
X127000000Y-95885000D01*
X127000000Y-95885000D02*
X127000000Y-93345000D01*
X124460000Y-95885000D02*
X121920000Y-95885000D01*
X121920000Y-95885000D02*
X121920000Y-98425000D01*
X121920000Y-98425000D02*
X124460000Y-98425000D01*
X124460000Y-95885000D02*
X127000000Y-95885000D01*
X124460000Y-98425000D02*
X127000000Y-98425000D01*
X127000000Y-98425000D02*
X127000000Y-95885000D01*
X124460000Y-98425000D02*
X121920000Y-98425000D01*
X121920000Y-98425000D02*
X121920000Y-100965000D01*
X121920000Y-100965000D02*
X124460000Y-100965000D01*
X124460000Y-98425000D02*
X127000000Y-98425000D01*
X124460000Y-100965000D02*
X127000000Y-100965000D01*
X127000000Y-100965000D02*
X127000000Y-98425000D01*
X129436905Y-115387381D02*
X129436905Y-114387381D01*
X129817858Y-114387381D01*
X129913096Y-114435000D01*
X129960715Y-114482619D01*
X130008334Y-114577857D01*
X130008334Y-114720714D01*
X129960715Y-114815952D01*
X129913096Y-114863571D01*
X129817858Y-114911190D01*
X129436905Y-114911190D01*
X130960715Y-115387381D02*
X130389286Y-115387381D01*
X130675000Y-115387381D02*
X130675000Y-114387381D01*
X130579762Y-114530238D01*
X130484524Y-114625476D01*
X130389286Y-114673095D01*
X128913095Y-115657381D02*
X128913095Y-116466905D01*
X128960714Y-116562143D01*
X129008333Y-116609762D01*
X129103571Y-116657381D01*
X129294048Y-116657381D01*
X129389286Y-116609762D01*
X129436905Y-116562143D01*
X129484524Y-116466905D01*
X129484524Y-115657381D01*
X129913095Y-116609762D02*
X130055952Y-116657381D01*
X130294048Y-116657381D01*
X130389286Y-116609762D01*
X130436905Y-116562143D01*
X130484524Y-116466905D01*
X130484524Y-116371667D01*
X130436905Y-116276429D01*
X130389286Y-116228810D01*
X130294048Y-116181190D01*
X130103571Y-116133571D01*
X130008333Y-116085952D01*
X129960714Y-116038333D01*
X129913095Y-115943095D01*
X129913095Y-115847857D01*
X129960714Y-115752619D01*
X130008333Y-115705000D01*
X130103571Y-115657381D01*
X130341667Y-115657381D01*
X130484524Y-115705000D01*
X131246429Y-116133571D02*
X131389286Y-116181190D01*
X131436905Y-116228810D01*
X131484524Y-116324048D01*
X131484524Y-116466905D01*
X131436905Y-116562143D01*
X131389286Y-116609762D01*
X131294048Y-116657381D01*
X130913095Y-116657381D01*
X130913095Y-115657381D01*
X131246429Y-115657381D01*
X131341667Y-115705000D01*
X131389286Y-115752619D01*
X131436905Y-115847857D01*
X131436905Y-115943095D01*
X131389286Y-116038333D01*
X131341667Y-116085952D01*
X131246429Y-116133571D01*
X130913095Y-116133571D01*
X133818334Y-81637143D02*
X133770715Y-81684762D01*
X133627858Y-81732381D01*
X133532620Y-81732381D01*
X133389762Y-81684762D01*
X133294524Y-81589524D01*
X133246905Y-81494286D01*
X133199286Y-81303810D01*
X133199286Y-81160952D01*
X133246905Y-80970476D01*
X133294524Y-80875238D01*
X133389762Y-80780000D01*
X133532620Y-80732381D01*
X133627858Y-80732381D01*
X133770715Y-80780000D01*
X133818334Y-80827619D01*
X134770715Y-81732381D02*
X134199286Y-81732381D01*
X134485000Y-81732381D02*
X134485000Y-80732381D01*
X134389762Y-80875238D01*
X134294524Y-80970476D01*
X134199286Y-81018095D01*
X127992143Y-90336666D02*
X128039762Y-90384285D01*
X128087381Y-90527142D01*
X128087381Y-90622380D01*
X128039762Y-90765238D01*
X127944524Y-90860476D01*
X127849286Y-90908095D01*
X127658810Y-90955714D01*
X127515952Y-90955714D01*
X127325476Y-90908095D01*
X127230238Y-90860476D01*
X127135000Y-90765238D01*
X127087381Y-90622380D01*
X127087381Y-90527142D01*
X127135000Y-90384285D01*
X127182619Y-90336666D01*
X127182619Y-89955714D02*
X127135000Y-89908095D01*
X127087381Y-89812857D01*
X127087381Y-89574761D01*
X127135000Y-89479523D01*
X127182619Y-89431904D01*
X127277857Y-89384285D01*
X127373095Y-89384285D01*
X127515952Y-89431904D01*
X128087381Y-90003333D01*
X128087381Y-89384285D01*
X127992143Y-95416666D02*
X128039762Y-95464285D01*
X128087381Y-95607142D01*
X128087381Y-95702380D01*
X128039762Y-95845238D01*
X127944524Y-95940476D01*
X127849286Y-95988095D01*
X127658810Y-96035714D01*
X127515952Y-96035714D01*
X127325476Y-95988095D01*
X127230238Y-95940476D01*
X127135000Y-95845238D01*
X127087381Y-95702380D01*
X127087381Y-95607142D01*
X127135000Y-95464285D01*
X127182619Y-95416666D01*
X127087381Y-95083333D02*
X127087381Y-94464285D01*
X127468333Y-94797619D01*
X127468333Y-94654761D01*
X127515952Y-94559523D01*
X127563571Y-94511904D01*
X127658810Y-94464285D01*
X127896905Y-94464285D01*
X127992143Y-94511904D01*
X128039762Y-94559523D01*
X128087381Y-94654761D01*
X128087381Y-94940476D01*
X128039762Y-95035714D01*
X127992143Y-95083333D01*
X124293334Y-80367143D02*
X124245715Y-80414762D01*
X124102858Y-80462381D01*
X124007620Y-80462381D01*
X123864762Y-80414762D01*
X123769524Y-80319524D01*
X123721905Y-80224286D01*
X123674286Y-80033810D01*
X123674286Y-79890952D01*
X123721905Y-79700476D01*
X123769524Y-79605238D01*
X123864762Y-79510000D01*
X124007620Y-79462381D01*
X124102858Y-79462381D01*
X124245715Y-79510000D01*
X124293334Y-79557619D01*
X125150477Y-79795714D02*
X125150477Y-80462381D01*
X124912381Y-79414762D02*
X124674286Y-80129048D01*
X125293334Y-80129048D01*
X130643334Y-80367143D02*
X130595715Y-80414762D01*
X130452858Y-80462381D01*
X130357620Y-80462381D01*
X130214762Y-80414762D01*
X130119524Y-80319524D01*
X130071905Y-80224286D01*
X130024286Y-80033810D01*
X130024286Y-79890952D01*
X130071905Y-79700476D01*
X130119524Y-79605238D01*
X130214762Y-79510000D01*
X130357620Y-79462381D01*
X130452858Y-79462381D01*
X130595715Y-79510000D01*
X130643334Y-79557619D01*
X131548096Y-79462381D02*
X131071905Y-79462381D01*
X131024286Y-79938571D01*
X131071905Y-79890952D01*
X131167143Y-79843333D01*
X131405239Y-79843333D01*
X131500477Y-79890952D01*
X131548096Y-79938571D01*
X131595715Y-80033810D01*
X131595715Y-80271905D01*
X131548096Y-80367143D01*
X131500477Y-80414762D01*
X131405239Y-80462381D01*
X131167143Y-80462381D01*
X131071905Y-80414762D01*
X131024286Y-80367143D01*
X133818334Y-64492143D02*
X133770715Y-64539762D01*
X133627858Y-64587381D01*
X133532620Y-64587381D01*
X133389762Y-64539762D01*
X133294524Y-64444524D01*
X133246905Y-64349286D01*
X133199286Y-64158810D01*
X133199286Y-64015952D01*
X133246905Y-63825476D01*
X133294524Y-63730238D01*
X133389762Y-63635000D01*
X133532620Y-63587381D01*
X133627858Y-63587381D01*
X133770715Y-63635000D01*
X133818334Y-63682619D01*
X134675477Y-63587381D02*
X134485000Y-63587381D01*
X134389762Y-63635000D01*
X134342143Y-63682619D01*
X134246905Y-63825476D01*
X134199286Y-64015952D01*
X134199286Y-64396905D01*
X134246905Y-64492143D01*
X134294524Y-64539762D01*
X134389762Y-64587381D01*
X134580239Y-64587381D01*
X134675477Y-64539762D01*
X134723096Y-64492143D01*
X134770715Y-64396905D01*
X134770715Y-64158810D01*
X134723096Y-64063571D01*
X134675477Y-64015952D01*
X134580239Y-63968333D01*
X134389762Y-63968333D01*
X134294524Y-64015952D01*
X134246905Y-64063571D01*
X134199286Y-64158810D01*
X143803810Y-63952381D02*
X143803810Y-62952381D01*
X144851429Y-63857143D02*
X144803810Y-63904762D01*
X144660953Y-63952381D01*
X144565715Y-63952381D01*
X144422857Y-63904762D01*
X144327619Y-63809524D01*
X144280000Y-63714286D01*
X144232381Y-63523810D01*
X144232381Y-63380952D01*
X144280000Y-63190476D01*
X144327619Y-63095238D01*
X144422857Y-63000000D01*
X144565715Y-62952381D01*
X144660953Y-62952381D01*
X144803810Y-63000000D01*
X144851429Y-63047619D01*
X145803810Y-63952381D02*
X145232381Y-63952381D01*
X145518095Y-63952381D02*
X145518095Y-62952381D01*
X145422857Y-63095238D01*
X145327619Y-63190476D01*
X145232381Y-63238095D01*
X144946667Y-92106191D02*
X144946667Y-91630000D01*
X145232381Y-92201429D02*
X144232381Y-91868096D01*
X145232381Y-91534762D01*
X144232381Y-91344286D02*
X144232381Y-90772857D01*
X145232381Y-91058572D02*
X144232381Y-91058572D01*
X145232381Y-90439524D02*
X144232381Y-90439524D01*
X144946667Y-90106190D01*
X144232381Y-89772857D01*
X145232381Y-89772857D01*
X144708571Y-89296667D02*
X144708571Y-88963333D01*
X145232381Y-88820476D02*
X145232381Y-89296667D01*
X144232381Y-89296667D01*
X144232381Y-88820476D01*
X144280000Y-87868095D02*
X144232381Y-87963333D01*
X144232381Y-88106190D01*
X144280000Y-88249048D01*
X144375238Y-88344286D01*
X144470476Y-88391905D01*
X144660952Y-88439524D01*
X144803810Y-88439524D01*
X144994286Y-88391905D01*
X145089524Y-88344286D01*
X145184762Y-88249048D01*
X145232381Y-88106190D01*
X145232381Y-88010952D01*
X145184762Y-87868095D01*
X145137143Y-87820476D01*
X144803810Y-87820476D01*
X144803810Y-88010952D01*
X144946667Y-87439524D02*
X144946667Y-86963333D01*
X145232381Y-87534762D02*
X144232381Y-87201429D01*
X145232381Y-86868095D01*
X145232381Y-86010952D02*
X145232381Y-86582381D01*
X145232381Y-86296667D02*
X144232381Y-86296667D01*
X144375238Y-86391905D01*
X144470476Y-86487143D01*
X144518095Y-86582381D01*
X144327619Y-85630000D02*
X144280000Y-85582381D01*
X144232381Y-85487143D01*
X144232381Y-85249047D01*
X144280000Y-85153809D01*
X144327619Y-85106190D01*
X144422857Y-85058571D01*
X144518095Y-85058571D01*
X144660952Y-85106190D01*
X145232381Y-85677619D01*
X145232381Y-85058571D01*
X144660952Y-84487143D02*
X144613333Y-84582381D01*
X144565714Y-84630000D01*
X144470476Y-84677619D01*
X144422857Y-84677619D01*
X144327619Y-84630000D01*
X144280000Y-84582381D01*
X144232381Y-84487143D01*
X144232381Y-84296666D01*
X144280000Y-84201428D01*
X144327619Y-84153809D01*
X144422857Y-84106190D01*
X144470476Y-84106190D01*
X144565714Y-84153809D01*
X144613333Y-84201428D01*
X144660952Y-84296666D01*
X144660952Y-84487143D01*
X144708571Y-84582381D01*
X144756190Y-84630000D01*
X144851429Y-84677619D01*
X145041905Y-84677619D01*
X145137143Y-84630000D01*
X145184762Y-84582381D01*
X145232381Y-84487143D01*
X145232381Y-84296666D01*
X145184762Y-84201428D01*
X145137143Y-84153809D01*
X145041905Y-84106190D01*
X144851429Y-84106190D01*
X144756190Y-84153809D01*
X144708571Y-84201428D01*
X144660952Y-84296666D01*
X144565714Y-83249047D02*
X145232381Y-83249047D01*
X144184762Y-83487143D02*
X144899048Y-83725238D01*
X144899048Y-83106190D01*
X118641905Y-112232381D02*
X118641905Y-111232381D01*
X119022858Y-111232381D01*
X119118096Y-111280000D01*
X119165715Y-111327619D01*
X119213334Y-111422857D01*
X119213334Y-111565714D01*
X119165715Y-111660952D01*
X119118096Y-111708571D01*
X119022858Y-111756190D01*
X118641905Y-111756190D01*
X119594286Y-111327619D02*
X119641905Y-111280000D01*
X119737143Y-111232381D01*
X119975239Y-111232381D01*
X120070477Y-111280000D01*
X120118096Y-111327619D01*
X120165715Y-111422857D01*
X120165715Y-111518095D01*
X120118096Y-111660952D01*
X119546667Y-112232381D01*
X120165715Y-112232381D01*
X124364762Y-88177619D02*
X124269524Y-88130000D01*
X124174286Y-88034762D01*
X124031429Y-87891905D01*
X123936190Y-87844286D01*
X123840952Y-87844286D01*
X123888571Y-88082381D02*
X123793333Y-88034762D01*
X123698095Y-87939524D01*
X123650476Y-87749048D01*
X123650476Y-87415714D01*
X123698095Y-87225238D01*
X123793333Y-87130000D01*
X123888571Y-87082381D01*
X124079048Y-87082381D01*
X124174286Y-87130000D01*
X124269524Y-87225238D01*
X124317143Y-87415714D01*
X124317143Y-87749048D01*
X124269524Y-87939524D01*
X124174286Y-88034762D01*
X124079048Y-88082381D01*
X123888571Y-88082381D01*
X125269524Y-88082381D02*
X124698095Y-88082381D01*
X124983809Y-88082381D02*
X124983809Y-87082381D01*
X124888571Y-87225238D01*
X124793333Y-87320476D01*
X124698095Y-87368095D01*
X127039762Y-84272381D02*
X126706428Y-83796190D01*
X126468333Y-84272381D02*
X126468333Y-83272381D01*
X126849286Y-83272381D01*
X126944524Y-83320000D01*
X126992143Y-83367619D01*
X127039762Y-83462857D01*
X127039762Y-83605714D01*
X126992143Y-83700952D01*
X126944524Y-83748571D01*
X126849286Y-83796190D01*
X126468333Y-83796190D01*
X127325476Y-83272381D02*
X127658809Y-84272381D01*
X127992143Y-83272381D01*
X128849286Y-84272381D02*
X128277857Y-84272381D01*
X128563571Y-84272381D02*
X128563571Y-83272381D01*
X128468333Y-83415238D01*
X128373095Y-83510476D01*
X128277857Y-83558095D01*
X127515953Y-85542381D02*
X126944524Y-85542381D01*
X127230238Y-85542381D02*
X127230238Y-84542381D01*
X127135000Y-84685238D01*
X127039762Y-84780476D01*
X126944524Y-84828095D01*
X127944524Y-85542381D02*
X127944524Y-84542381D01*
X128039762Y-85161429D02*
X128325477Y-85542381D01*
X128325477Y-84875714D02*
X127944524Y-85256667D01*
X126238095Y-64222381D02*
X126238095Y-65031905D01*
X126285714Y-65127143D01*
X126333333Y-65174762D01*
X126428571Y-65222381D01*
X126619048Y-65222381D01*
X126714286Y-65174762D01*
X126761905Y-65127143D01*
X126809524Y-65031905D01*
X126809524Y-64222381D01*
X127809524Y-65222381D02*
X127238095Y-65222381D01*
X127523809Y-65222381D02*
X127523809Y-64222381D01*
X127428571Y-64365238D01*
X127333333Y-64460476D01*
X127238095Y-64508095D01*
X127452381Y-72016666D02*
X127452381Y-72492857D01*
X126452381Y-72492857D01*
X127452381Y-71683333D02*
X126452381Y-71683333D01*
X127166667Y-71349999D01*
X126452381Y-71016666D01*
X127452381Y-71016666D01*
X127452381Y-70016666D02*
X127452381Y-70588095D01*
X127452381Y-70302381D02*
X126452381Y-70302381D01*
X126595238Y-70397619D01*
X126690476Y-70492857D01*
X126738095Y-70588095D01*
X126880952Y-69445238D02*
X126833333Y-69540476D01*
X126785714Y-69588095D01*
X126690476Y-69635714D01*
X126642857Y-69635714D01*
X126547619Y-69588095D01*
X126500000Y-69540476D01*
X126452381Y-69445238D01*
X126452381Y-69254761D01*
X126500000Y-69159523D01*
X126547619Y-69111904D01*
X126642857Y-69064285D01*
X126690476Y-69064285D01*
X126785714Y-69111904D01*
X126833333Y-69159523D01*
X126880952Y-69254761D01*
X126880952Y-69445238D01*
X126928571Y-69540476D01*
X126976190Y-69588095D01*
X127071429Y-69635714D01*
X127261905Y-69635714D01*
X127357143Y-69588095D01*
X127404762Y-69540476D01*
X127452381Y-69445238D01*
X127452381Y-69254761D01*
X127404762Y-69159523D01*
X127357143Y-69111904D01*
X127261905Y-69064285D01*
X127071429Y-69064285D01*
X126976190Y-69111904D01*
X126928571Y-69159523D01*
X126880952Y-69254761D01*
X126880952Y-68492857D02*
X126833333Y-68588095D01*
X126785714Y-68635714D01*
X126690476Y-68683333D01*
X126642857Y-68683333D01*
X126547619Y-68635714D01*
X126500000Y-68588095D01*
X126452381Y-68492857D01*
X126452381Y-68302380D01*
X126500000Y-68207142D01*
X126547619Y-68159523D01*
X126642857Y-68111904D01*
X126690476Y-68111904D01*
X126785714Y-68159523D01*
X126833333Y-68207142D01*
X126880952Y-68302380D01*
X126880952Y-68492857D01*
X126928571Y-68588095D01*
X126976190Y-68635714D01*
X127071429Y-68683333D01*
X127261905Y-68683333D01*
X127357143Y-68635714D01*
X127404762Y-68588095D01*
X127452381Y-68492857D01*
X127452381Y-68302380D01*
X127404762Y-68207142D01*
X127357143Y-68159523D01*
X127261905Y-68111904D01*
X127071429Y-68111904D01*
X126976190Y-68159523D01*
X126928571Y-68207142D01*
X126880952Y-68302380D01*
X127452381Y-67159523D02*
X127452381Y-67730952D01*
X127452381Y-67445238D02*
X126452381Y-67445238D01*
X126595238Y-67540476D01*
X126690476Y-67635714D01*
X126738095Y-67730952D01*
X133326190Y-93186191D02*
X133802381Y-93186191D01*
X132802381Y-93519524D02*
X133326190Y-93186191D01*
X132802381Y-92852857D01*
X133802381Y-91995714D02*
X133802381Y-92567143D01*
X133802381Y-92281429D02*
X132802381Y-92281429D01*
X132945238Y-92376667D01*
X133040476Y-92471905D01*
X133088095Y-92567143D01*
X131088095Y-98607619D02*
X131135714Y-98560000D01*
X131230952Y-98512381D01*
X131469048Y-98512381D01*
X131564286Y-98560000D01*
X131611905Y-98607619D01*
X131659524Y-98702857D01*
X131659524Y-98798095D01*
X131611905Y-98940952D01*
X131040476Y-99512381D01*
X131659524Y-99512381D01*
X132278571Y-98512381D02*
X132373810Y-98512381D01*
X132469048Y-98560000D01*
X132516667Y-98607619D01*
X132564286Y-98702857D01*
X132611905Y-98893333D01*
X132611905Y-99131429D01*
X132564286Y-99321905D01*
X132516667Y-99417143D01*
X132469048Y-99464762D01*
X132373810Y-99512381D01*
X132278571Y-99512381D01*
X132183333Y-99464762D01*
X132135714Y-99417143D01*
X132088095Y-99321905D01*
X132040476Y-99131429D01*
X132040476Y-98893333D01*
X132088095Y-98702857D01*
X132135714Y-98607619D01*
X132183333Y-98560000D01*
X132278571Y-98512381D01*
X133040476Y-99512381D02*
X133040476Y-98512381D01*
X133373810Y-99226667D01*
X133707143Y-98512381D01*
X133707143Y-99512381D01*
X134183333Y-99512381D02*
X134183333Y-98512381D01*
X134183333Y-98988571D02*
X134754762Y-98988571D01*
X134754762Y-99512381D02*
X134754762Y-98512381D01*
X135135714Y-98845714D02*
X135659524Y-98845714D01*
X135135714Y-99512381D01*
X135659524Y-99512381D01*
X123261381Y-106402095D02*
X122261381Y-106402095D01*
X122261381Y-106164000D01*
X122309000Y-106021142D01*
X122404238Y-105925904D01*
X122499476Y-105878285D01*
X122689952Y-105830666D01*
X122832810Y-105830666D01*
X123023286Y-105878285D01*
X123118524Y-105925904D01*
X123213762Y-106021142D01*
X123261381Y-106164000D01*
X123261381Y-106402095D01*
X123261381Y-104878285D02*
X123261381Y-105449714D01*
X123261381Y-105164000D02*
X122261381Y-105164000D01*
X122404238Y-105259238D01*
X122499476Y-105354476D01*
X122547095Y-105449714D01*
X134437381Y-106275095D02*
X133437381Y-106275095D01*
X133437381Y-106037000D01*
X133485000Y-105894142D01*
X133580238Y-105798904D01*
X133675476Y-105751285D01*
X133865952Y-105703666D01*
X134008810Y-105703666D01*
X134199286Y-105751285D01*
X134294524Y-105798904D01*
X134389762Y-105894142D01*
X134437381Y-106037000D01*
X134437381Y-106275095D01*
X133532619Y-105322714D02*
X133485000Y-105275095D01*
X133437381Y-105179857D01*
X133437381Y-104941761D01*
X133485000Y-104846523D01*
X133532619Y-104798904D01*
X133627857Y-104751285D01*
X133723095Y-104751285D01*
X133865952Y-104798904D01*
X134437381Y-105370333D01*
X134437381Y-104751285D01*
X128849381Y-107989666D02*
X128373190Y-108323000D01*
X128849381Y-108561095D02*
X127849381Y-108561095D01*
X127849381Y-108180142D01*
X127897000Y-108084904D01*
X127944619Y-108037285D01*
X128039857Y-107989666D01*
X128182714Y-107989666D01*
X128277952Y-108037285D01*
X128325571Y-108084904D01*
X128373190Y-108180142D01*
X128373190Y-108561095D01*
X128849381Y-107037285D02*
X128849381Y-107608714D01*
X128849381Y-107323000D02*
X127849381Y-107323000D01*
X127992238Y-107418238D01*
X128087476Y-107513476D01*
X128135095Y-107608714D01*
X127849381Y-104425714D02*
X127849381Y-104616191D01*
X127897000Y-104711429D01*
X127944619Y-104759048D01*
X128087476Y-104854286D01*
X128277952Y-104901905D01*
X128658905Y-104901905D01*
X128754143Y-104854286D01*
X128801762Y-104806667D01*
X128849381Y-104711429D01*
X128849381Y-104520952D01*
X128801762Y-104425714D01*
X128754143Y-104378095D01*
X128658905Y-104330476D01*
X128420810Y-104330476D01*
X128325571Y-104378095D01*
X128277952Y-104425714D01*
X128230333Y-104520952D01*
X128230333Y-104711429D01*
X128277952Y-104806667D01*
X128325571Y-104854286D01*
X128420810Y-104901905D01*
X128277952Y-103759048D02*
X128230333Y-103854286D01*
X128182714Y-103901905D01*
X128087476Y-103949524D01*
X128039857Y-103949524D01*
X127944619Y-103901905D01*
X127897000Y-103854286D01*
X127849381Y-103759048D01*
X127849381Y-103568571D01*
X127897000Y-103473333D01*
X127944619Y-103425714D01*
X128039857Y-103378095D01*
X128087476Y-103378095D01*
X128182714Y-103425714D01*
X128230333Y-103473333D01*
X128277952Y-103568571D01*
X128277952Y-103759048D01*
X128325571Y-103854286D01*
X128373190Y-103901905D01*
X128468429Y-103949524D01*
X128658905Y-103949524D01*
X128754143Y-103901905D01*
X128801762Y-103854286D01*
X128849381Y-103759048D01*
X128849381Y-103568571D01*
X128801762Y-103473333D01*
X128754143Y-103425714D01*
X128658905Y-103378095D01*
X128468429Y-103378095D01*
X128373190Y-103425714D01*
X128325571Y-103473333D01*
X128277952Y-103568571D01*
X131643381Y-107989666D02*
X131167190Y-108323000D01*
X131643381Y-108561095D02*
X130643381Y-108561095D01*
X130643381Y-108180142D01*
X130691000Y-108084904D01*
X130738619Y-108037285D01*
X130833857Y-107989666D01*
X130976714Y-107989666D01*
X131071952Y-108037285D01*
X131119571Y-108084904D01*
X131167190Y-108180142D01*
X131167190Y-108561095D01*
X130738619Y-107608714D02*
X130691000Y-107561095D01*
X130643381Y-107465857D01*
X130643381Y-107227761D01*
X130691000Y-107132523D01*
X130738619Y-107084904D01*
X130833857Y-107037285D01*
X130929095Y-107037285D01*
X131071952Y-107084904D01*
X131643381Y-107656333D01*
X131643381Y-107037285D01*
X130643381Y-104425714D02*
X130643381Y-104616191D01*
X130691000Y-104711429D01*
X130738619Y-104759048D01*
X130881476Y-104854286D01*
X131071952Y-104901905D01*
X131452905Y-104901905D01*
X131548143Y-104854286D01*
X131595762Y-104806667D01*
X131643381Y-104711429D01*
X131643381Y-104520952D01*
X131595762Y-104425714D01*
X131548143Y-104378095D01*
X131452905Y-104330476D01*
X131214810Y-104330476D01*
X131119571Y-104378095D01*
X131071952Y-104425714D01*
X131024333Y-104520952D01*
X131024333Y-104711429D01*
X131071952Y-104806667D01*
X131119571Y-104854286D01*
X131214810Y-104901905D01*
X131071952Y-103759048D02*
X131024333Y-103854286D01*
X130976714Y-103901905D01*
X130881476Y-103949524D01*
X130833857Y-103949524D01*
X130738619Y-103901905D01*
X130691000Y-103854286D01*
X130643381Y-103759048D01*
X130643381Y-103568571D01*
X130691000Y-103473333D01*
X130738619Y-103425714D01*
X130833857Y-103378095D01*
X130881476Y-103378095D01*
X130976714Y-103425714D01*
X131024333Y-103473333D01*
X131071952Y-103568571D01*
X131071952Y-103759048D01*
X131119571Y-103854286D01*
X131167190Y-103901905D01*
X131262429Y-103949524D01*
X131452905Y-103949524D01*
X131548143Y-103901905D01*
X131595762Y-103854286D01*
X131643381Y-103759048D01*
X131643381Y-103568571D01*
X131595762Y-103473333D01*
X131548143Y-103425714D01*
X131452905Y-103378095D01*
X131262429Y-103378095D01*
X131167190Y-103425714D01*
X131119571Y-103473333D01*
X131071952Y-103568571D01*
X126055381Y-107989666D02*
X125579190Y-108323000D01*
X126055381Y-108561095D02*
X125055381Y-108561095D01*
X125055381Y-108180142D01*
X125103000Y-108084904D01*
X125150619Y-108037285D01*
X125245857Y-107989666D01*
X125388714Y-107989666D01*
X125483952Y-108037285D01*
X125531571Y-108084904D01*
X125579190Y-108180142D01*
X125579190Y-108561095D01*
X125055381Y-107656333D02*
X125055381Y-107037285D01*
X125436333Y-107370619D01*
X125436333Y-107227761D01*
X125483952Y-107132523D01*
X125531571Y-107084904D01*
X125626810Y-107037285D01*
X125864905Y-107037285D01*
X125960143Y-107084904D01*
X126007762Y-107132523D01*
X126055381Y-107227761D01*
X126055381Y-107513476D01*
X126007762Y-107608714D01*
X125960143Y-107656333D01*
X126055381Y-105116238D02*
X126055381Y-105687667D01*
X126055381Y-105401953D02*
X125055381Y-105401953D01*
X125198238Y-105497191D01*
X125293476Y-105592429D01*
X125341095Y-105687667D01*
X126055381Y-104687667D02*
X125055381Y-104687667D01*
X125674429Y-104592429D02*
X126055381Y-104306714D01*
X125388714Y-104306714D02*
X125769667Y-104687667D01*
X125055381Y-103401952D02*
X125055381Y-103878143D01*
X125531571Y-103925762D01*
X125483952Y-103878143D01*
X125436333Y-103782905D01*
X125436333Y-103544809D01*
X125483952Y-103449571D01*
X125531571Y-103401952D01*
X125626810Y-103354333D01*
X125864905Y-103354333D01*
X125960143Y-103401952D01*
X126007762Y-103449571D01*
X126055381Y-103544809D01*
X126055381Y-103782905D01*
X126007762Y-103878143D01*
X125960143Y-103925762D01*
X122372381Y-85891666D02*
X121896190Y-86225000D01*
X122372381Y-86463095D02*
X121372381Y-86463095D01*
X121372381Y-86082142D01*
X121420000Y-85986904D01*
X121467619Y-85939285D01*
X121562857Y-85891666D01*
X121705714Y-85891666D01*
X121800952Y-85939285D01*
X121848571Y-85986904D01*
X121896190Y-86082142D01*
X121896190Y-86463095D01*
X121705714Y-85034523D02*
X122372381Y-85034523D01*
X121324762Y-85272619D02*
X122039048Y-85510714D01*
X122039048Y-84891666D01*
X121705714Y-83240476D02*
X122372381Y-83240476D01*
X121324762Y-83478572D02*
X122039048Y-83716667D01*
X122039048Y-83097619D01*
X122372381Y-82716667D02*
X121372381Y-82716667D01*
X121991429Y-82621429D02*
X122372381Y-82335714D01*
X121705714Y-82335714D02*
X122086667Y-82716667D01*
X121372381Y-82002381D02*
X121372381Y-81335714D01*
X122372381Y-81764286D01*
X134437381Y-77001666D02*
X133961190Y-77335000D01*
X134437381Y-77573095D02*
X133437381Y-77573095D01*
X133437381Y-77192142D01*
X133485000Y-77096904D01*
X133532619Y-77049285D01*
X133627857Y-77001666D01*
X133770714Y-77001666D01*
X133865952Y-77049285D01*
X133913571Y-77096904D01*
X133961190Y-77192142D01*
X133961190Y-77573095D01*
X133437381Y-76096904D02*
X133437381Y-76573095D01*
X133913571Y-76620714D01*
X133865952Y-76573095D01*
X133818333Y-76477857D01*
X133818333Y-76239761D01*
X133865952Y-76144523D01*
X133913571Y-76096904D01*
X134008810Y-76049285D01*
X134246905Y-76049285D01*
X134342143Y-76096904D01*
X134389762Y-76144523D01*
X134437381Y-76239761D01*
X134437381Y-76477857D01*
X134389762Y-76573095D01*
X134342143Y-76620714D01*
X133437381Y-74826666D02*
X133437381Y-75017143D01*
X133485000Y-75112381D01*
X133532619Y-75160000D01*
X133675476Y-75255238D01*
X133865952Y-75302857D01*
X134246905Y-75302857D01*
X134342143Y-75255238D01*
X134389762Y-75207619D01*
X134437381Y-75112381D01*
X134437381Y-74921904D01*
X134389762Y-74826666D01*
X134342143Y-74779047D01*
X134246905Y-74731428D01*
X134008810Y-74731428D01*
X133913571Y-74779047D01*
X133865952Y-74826666D01*
X133818333Y-74921904D01*
X133818333Y-75112381D01*
X133865952Y-75207619D01*
X133913571Y-75255238D01*
X134008810Y-75302857D01*
X133865952Y-74160000D02*
X133818333Y-74255238D01*
X133770714Y-74302857D01*
X133675476Y-74350476D01*
X133627857Y-74350476D01*
X133532619Y-74302857D01*
X133485000Y-74255238D01*
X133437381Y-74160000D01*
X133437381Y-73969523D01*
X133485000Y-73874285D01*
X133532619Y-73826666D01*
X133627857Y-73779047D01*
X133675476Y-73779047D01*
X133770714Y-73826666D01*
X133818333Y-73874285D01*
X133865952Y-73969523D01*
X133865952Y-74160000D01*
X133913571Y-74255238D01*
X133961190Y-74302857D01*
X134056429Y-74350476D01*
X134246905Y-74350476D01*
X134342143Y-74302857D01*
X134389762Y-74255238D01*
X134437381Y-74160000D01*
X134437381Y-73969523D01*
X134389762Y-73874285D01*
X134342143Y-73826666D01*
X134246905Y-73779047D01*
X134056429Y-73779047D01*
X133961190Y-73826666D01*
X133913571Y-73874285D01*
X133865952Y-73969523D01*
X133437381Y-73160000D02*
X133437381Y-73064761D01*
X133485000Y-72969523D01*
X133532619Y-72921904D01*
X133627857Y-72874285D01*
X133818333Y-72826666D01*
X134056429Y-72826666D01*
X134246905Y-72874285D01*
X134342143Y-72921904D01*
X134389762Y-72969523D01*
X134437381Y-73064761D01*
X134437381Y-73160000D01*
X134389762Y-73255238D01*
X134342143Y-73302857D01*
X134246905Y-73350476D01*
X134056429Y-73398095D01*
X133818333Y-73398095D01*
X133627857Y-73350476D01*
X133532619Y-73302857D01*
X133485000Y-73255238D01*
X133437381Y-73160000D01*
X134437381Y-72398095D02*
X133437381Y-72398095D01*
X134056429Y-72302857D02*
X134437381Y-72017142D01*
X133770714Y-72017142D02*
X134151667Y-72398095D01*
%LPC*%
D12*
X133850400Y-116649500D03*
X126550400Y-116649500D03*
D13*
X131000400Y-112799500D03*
X129400400Y-112799500D03*
X131800400Y-111599500D03*
X130200400Y-111599500D03*
X128600400Y-111599500D03*
D14*
X133985000Y-85725000D03*
D15*
X133985000Y-83225000D03*
D14*
X129540000Y-91440000D03*
D15*
X129540000Y-88940000D03*
D14*
X129540000Y-93980000D03*
D15*
X129540000Y-96480000D03*
D14*
X125730000Y-77470000D03*
D15*
X123230000Y-77470000D03*
D14*
X128270000Y-77470000D03*
D15*
X130770000Y-77470000D03*
D14*
X133985000Y-66040000D03*
D15*
X133985000Y-68540000D03*
D16*
X137160000Y-63500000D03*
X137160000Y-66040000D03*
X137160000Y-68580000D03*
X137160000Y-71120000D03*
X137160000Y-73660000D03*
X137160000Y-76200000D03*
X137160000Y-78740000D03*
X137160000Y-81280000D03*
X137160000Y-83820000D03*
X137160000Y-86360000D03*
X137160000Y-88900000D03*
X137160000Y-91440000D03*
X137160000Y-93980000D03*
X137160000Y-96520000D03*
X137160000Y-99060000D03*
X137160000Y-101600000D03*
X137160000Y-104140000D03*
X137160000Y-106680000D03*
X137160000Y-109220000D03*
X137160000Y-111760000D03*
X152400000Y-111760000D03*
X152400000Y-109220000D03*
X152400000Y-106680000D03*
X152400000Y-104140000D03*
X152400000Y-101600000D03*
X152400000Y-99060000D03*
X152400000Y-96520000D03*
X152400000Y-93980000D03*
X152400000Y-91440000D03*
X152400000Y-88900000D03*
X152400000Y-86360000D03*
X152400000Y-83820000D03*
X152400000Y-81280000D03*
X152400000Y-78740000D03*
X152400000Y-76200000D03*
X152400000Y-73660000D03*
X152400000Y-71120000D03*
X152400000Y-68580000D03*
X152400000Y-66040000D03*
X152400000Y-63500000D03*
D17*
X119380000Y-106680000D03*
D18*
X119380000Y-104140000D03*
X119380000Y-101600000D03*
X119380000Y-99060000D03*
X119380000Y-96520000D03*
X119380000Y-93980000D03*
X119380000Y-91440000D03*
X119380000Y-88900000D03*
X119380000Y-86360000D03*
X119380000Y-83820000D03*
X119380000Y-81280000D03*
X119380000Y-78740000D03*
X119380000Y-76200000D03*
X119380000Y-73660000D03*
X119380000Y-71120000D03*
X119380000Y-68580000D03*
D19*
X154940000Y-115570000D03*
D20*
X152400000Y-115570000D03*
X149860000Y-115570000D03*
X147320000Y-115570000D03*
X144780000Y-115570000D03*
X142240000Y-115570000D03*
X139700000Y-115570000D03*
X137160000Y-115570000D03*
D19*
X123190000Y-115570000D03*
D20*
X120650000Y-115570000D03*
X118110000Y-115570000D03*
D21*
X119380000Y-64262000D03*
X156210000Y-64262000D03*
X156210000Y-111252000D03*
X119380000Y-111252000D03*
D17*
X156210000Y-68580000D03*
D18*
X156210000Y-71120000D03*
X156210000Y-73660000D03*
X156210000Y-76200000D03*
X156210000Y-78740000D03*
X156210000Y-81280000D03*
X156210000Y-83820000D03*
X156210000Y-86360000D03*
X156210000Y-88900000D03*
X156210000Y-91440000D03*
X156210000Y-93980000D03*
X156210000Y-96520000D03*
X156210000Y-99060000D03*
X156210000Y-101600000D03*
X156210000Y-104140000D03*
X156210000Y-106680000D03*
D22*
X124460000Y-90170000D03*
X123190000Y-90170000D03*
X125730000Y-90170000D03*
D23*
X127635000Y-81280000D03*
X125095000Y-83820000D03*
X130175000Y-83820000D03*
D16*
X123190000Y-66040000D03*
X123190000Y-68580000D03*
X123190000Y-71120000D03*
X123190000Y-73660000D03*
X130810000Y-73660000D03*
X130810000Y-71120000D03*
X130810000Y-68580000D03*
X130810000Y-66040000D03*
D24*
X133350000Y-90269060D03*
X133350000Y-95150940D03*
D25*
X122809000Y-109728000D03*
X122809000Y-102108000D03*
X133985000Y-109728000D03*
X133985000Y-102108000D03*
X128397000Y-109728000D03*
X128397000Y-102108000D03*
X131191000Y-109728000D03*
X131191000Y-102108000D03*
X125603000Y-109728000D03*
X125603000Y-102108000D03*
X121920000Y-87630000D03*
X121920000Y-80010000D03*
X133985000Y-71120000D03*
X133985000Y-78740000D03*
D26*
X123190000Y-94615000D03*
D27*
X125730000Y-94615000D03*
D26*
X123190000Y-97155000D03*
D27*
X125730000Y-97155000D03*
D26*
X123190000Y-99695000D03*
D27*
X125730000Y-99695000D03*
M02*
